<svg xmlns="http://www.w3.org/2000/svg" xmlns:xlink="http://www.w3.org/1999/xlink" width="4954.04" height="2731.02" viewBox="0 0 4954.04 2731.02">
  <defs>
    <linearGradient id="linear-gradient" x1="1" x2="0" y2="1" gradientUnits="objectBoundingBox">
      <stop offset="0" stop-color="#26cbfe"/>
      <stop offset="1" stop-color="#0a7fee"/>
    </linearGradient>
    <linearGradient id="linear-gradient-2" x1="0.5" x2="0.5" y2="1" gradientUnits="objectBoundingBox">
      <stop offset="0" stop-color="#fefefe"/>
      <stop offset="1" stop-color="#819ab3"/>
    </linearGradient>
    <linearGradient id="linear-gradient-3" x1="0.5" x2="0.5" y2="1" gradientUnits="objectBoundingBox">
      <stop offset="0" stop-color="#819ab3"/>
      <stop offset="1" stop-color="#fefefe"/>
    </linearGradient>
    <linearGradient id="linear-gradient-4" y1="0.5" y2="0.5" xlink:href="#linear-gradient"/>
    <linearGradient id="linear-gradient-5" x1="1" y1="0.45" x2="0" y2="0.469" gradientUnits="objectBoundingBox">
      <stop offset="0" stop-color="#0a7fee"/>
      <stop offset="1" stop-color="#26cbfe"/>
    </linearGradient>
  </defs>
  <g id="_1" data-name="1" transform="translate(-7551.76 -6252)">
    <g id="Shape_1" data-name="Shape 1">
      <path id="Pfad_1" data-name="Pfad 1" d="M11208,8408.5H9552.15l-9.681-22.88L9348.15,7926.5H8808.9L8615.56,8385.56l-9.659,22.94H7609.38l23.33-52.68,338.87-765.15L7824.79,7189.9l-18.46-50.4h352.91l353.27-827.23,9.73-22.77H12447.4l-24.3,53.11-693,1514-10,21.89H11065l130.2,482.73Z" fill="#171d2b"/>
      <path id="Pfad_2" data-name="Pfad 2" d="M11159,8371l-143-530h680l693-1514H8547l-363,850H7860l152,415-345,779h914l203-482h589l204,482h1582m97.9,75H9527.3l-19.37-45.77L9323.3,7964H8833.79l-183.67,436.11L8630.79,8446H7551.76l46.66-105.37,332.73-751.29L7789.58,7202.8,7752.66,7102h381.82l343.55-804.45,19.45-45.55H12505.8l-48.6,106.21-693,1514-20,43.79h-630.3l117.5,435.46Z" fill="url(#linear-gradient)"/>
    </g>
    <g id="Gruppe_1" data-name="Gruppe 1">
      <g id="Form_1" data-name="Form 1">
        <path id="Pfad_3" data-name="Pfad 3" d="M10832.6,8120.5h-395.5l-393-934h1661.7l-175.1,405.24h-932.3l-22.8,94.52,162.2,82.93Z" fill="url(#linear-gradient-2)"/>
        <path id="Pfad_4" data-name="Pfad 4" d="M10767.3,8070.5l-72-266.89-142.5-72.83-287.3-146.91,204.8,486.63h297m730.5-528.76,131.9-305.24H10119.3l128.5,305.24h1250m-599.9,628.76h-494l-435.131-1034H11781.9l-218.4,505.24h-965.1l181.9,93.02Z" fill="url(#linear-gradient-3)"/>
      </g>
      <g id="Form_2" data-name="Form 2">
        <path id="Pfad_5" data-name="Pfad 5" d="M11757.9,6940.5H9941.7l-153.45-364H11961.2Z" fill="url(#linear-gradient-4)"/>
        <path id="Pfad_6" data-name="Pfad 6" d="M9863.59,6626.5l111.3,264H11728.6l147.4-264H9863.59m-150.68-100H12046.4l-259.1,464H9908.52Z" fill="url(#linear-gradient-5)"/>
      </g>
    </g>
    <g id="text" transform="translate(284)">
      <path id="Shape_1_copy_3" data-name="Shape 1 copy 3" d="M10417.8,8983.02c-.295,0-.585-.008-.815-.021h-128l-14-48,45-10,5,18.029h82c1.282,0,2.843-3,3.927-5.517s1.913-5.022,2.068-5.5V8932l9-40-.012-.042c-.8-2.875-3.512-12.739-4.989-18.959a24.25,24.25,0,0,0-3.63-8.161,17.872,17.872,0,0,0-2.362-2.833h0l-87.241-32.717a104.809,104.809,0,0,1-17.07-5.4,82.225,82.225,0,0,1-11.739-6A47.153,47.153,0,0,1,10286,8811l-16-50c.074-.3,7.554-30.548,15-57.917a39.4,39.4,0,0,1,7.1-14.5,30.431,30.431,0,0,1,9.392-7.8,32.189,32.189,0,0,1,14.689-3.764c.438,0,.715.012.814.018h128l14,48.1-45,10.02-5-18.066h-82c-1.277,0-2.841,3.006-3.928,5.526-1.169,2.716-2.062,5.5-2.07,5.526l-7,31.08c.033.117,3.33,11.988,5,19.036a24.407,24.407,0,0,0,3.63,8.182,17.922,17.922,0,0,0,2.368,2.842l111.7,38.916a5.807,5.807,0,0,1-1.149-.826.021.021,0,0,1,0-.008.024.024,0,0,1,.019-.007,25.092,25.092,0,0,1,3.379,1.623l1.052.367h-.4a20.47,20.47,0,0,1,4.756,4.509,59.77,59.77,0,0,1,4.822,7.043c2.487,4.168,4.31,8,4.809,9.07l.017.035,12,42-.009.031c-.094.37-9.457,37.34-16.993,64.97a39.347,39.347,0,0,1-7.1,14.475,30.323,30.323,0,0,1-9.389,7.788A32.221,32.221,0,0,1,10417.8,8983.02ZM8237,8983h-46l-20-84H8070l-21,84h-45l77-306h79Zm-124-267-34,143h82l-33-143Zm2000,267h-46l-20-84H9946l-21,84h-45l77-306h79Zm-124-267-34,143h82l-33-143Zm-625,267h-49l-22-101h-72v101h-44V8677h138a27.483,27.483,0,0,1,12.6,2.813,23.742,23.742,0,0,1,7.627,6.188,26.22,26.22,0,0,1,4.767,9l23,80c0,.016-.018.067-.039.152l-.113.437c-3.881,14.976-16.782,64.814-19.848,77.41a64.693,64.693,0,0,1-5.326,14.953A18.675,18.675,0,0,1,9335,8872Zm-143.012-269v129H9300a5.438,5.438,0,0,0,2.169-1.848c1.116-1.406,2.688-4.15,3.832-9.234,2.189-9.723,11.9-55.461,12-55.919v-.021c-.4-1.684-9.847-41.363-11.994-50.9-1.145-5.086-2.716-7.829-3.832-9.234A5.428,5.428,0,0,0,9300,8714ZM9709,8983H9545V8677h164l15,48-45,10-6-18.029h-85V8807h76l6.6,16.021.4-.02-.171.585.171.414-.3.015L9664,8847h-76v96.03h85l6-18.029,45,10-15,48Zm-1107,0h-39l-115-224v224h-44V8720l9-43h37l117,220V8677h44v261Zm341,0H8799V8677h144a38.961,38.961,0,0,1,13.553,3.2A31.629,31.629,0,0,1,8975,8702c5.968,22.694,24.842,109.774,28.564,127H9004a.2.2,0,0,1-.006.033.56.56,0,0,1-.019.083c-.008.035-.023.111-.04.188l-.025.119-.125.576c.142.655.215,1,.215,1h-.433c-3.739,17.292-22.693,104.688-28.565,127a31.612,31.612,0,0,1-18.447,21.795A38.52,38.52,0,0,1,8943,8983Zm-101-266.03v226.06h82.97a9.023,9.023,0,0,0,5.492-2.035,19.27,19.27,0,0,0,4.1-4.481A33.8,33.8,0,0,0,8938,8930l21.782-100L8938,8730a34.592,34.592,0,0,0-3.442-6.515,19.213,19.213,0,0,0-4.1-4.482,9.018,9.018,0,0,0-5.493-2.034Z" transform="translate(-294)" fill="#fefefe"/>
      <path id="Vereinigungsmenge_1" data-name="Vereinigungsmenge 1" d="M2752.76,5405l-57-140h-53v140h-43V5099h43v128h54l57-128h45l-60,144v5l61,157Zm-389,0-115-224v224h-44V5142l9-43h37l117,220V5099h44v261l-9,45Zm-394,0V5099h44v306Zm-235,0v-44h44v44Zm-361,0V5099h167l14,46-44,10-7-19h-87v102h80l8,20-8,20h-80v127Z" transform="translate(8980.24 3578)" fill="url(#linear-gradient)"/>
    </g>
    <g id="Form_3" data-name="Form 3">
      <path id="Pfad_7" data-name="Pfad 7" d="M10098.4,8120.5H9742.73L9250.66,6961.95l-12.93-30.45H8930.12l-13.19,29.73L8739.94,7360.22l-31.181,70.28h406.87l89.28,209H8618.47l-12.89,30.56L8415.47,8120.5H8051.36l221.02-500.81,8.13-18.42-6.9-18.91-56.5-154.86h132.56l12.96-30.38,350.04-820.62h736.75Z" fill="url(#linear-gradient-2)"/>
      <path id="Pfad_8" data-name="Pfad 8" d="M10023.1,8070.5l-606.9-1444H8745.7l-337.08,790.24-25.92,60.76h-94.13l32.01,87.73,13.8,37.81-16.25,36.84L8128.08,8070.5H8382.3l177.21-419.88,25.79-61.12h543.88l-46.56-109H8631.88l62.351-140.55,177-399,26.369-59.45h373.21l25.87,60.91L9775.81,8070.5h247.29m150.5,100H9709.64l-505-1189h-242l-177,399h363l132,309h-629l-203,481h-474l252-571-81-222h171l363-851h803Z" fill="url(#linear-gradient-3)"/>
    </g>
  </g>
</svg>
