<svg xmlns="http://www.w3.org/2000/svg" xmlns:xlink="http://www.w3.org/1999/xlink" viewBox="0 0 4954.04 2731.02">
  <defs>
    <linearGradient id="a" x1="1" x2="0" y2="1" gradientUnits="objectBoundingBox">
      <stop offset="0" stop-color="#26cbfe"/>
      <stop offset="1" stop-color="#0a7fee"/>
    </linearGradient>
    <linearGradient id="b" x1=".5" x2=".5" y2="1" gradientUnits="objectBoundingBox">
      <stop offset="0" stop-color="#fefefe"/>
      <stop offset="1" stop-color="#819ab3"/>
    </linearGradient>
    <linearGradient id="c" x1=".5" x2=".5" y2="1" gradientUnits="objectBoundingBox">
      <stop offset="0" stop-color="#819ab3"/>
      <stop offset="1" stop-color="#fefefe"/>
    </linearGradient>
    <linearGradient xlink:href="#a" id="d" y1=".5" y2=".5"/>
    <linearGradient id="e" x1="1" x2="0" y1=".45" y2=".469" gradientUnits="objectBoundingBox">
      <stop offset="0" stop-color="#0a7fee"/>
      <stop offset="1" stop-color="#26cbfe"/>
    </linearGradient>
  </defs>
  <path fill="#171d2b" d="M3656.24 2156.5H2000.39l-9.681-22.88-194.319-459.12h-539.25l-193.34 459.06-9.659 22.94H57.62l23.33-52.68 338.87-765.15L273.03 937.9l-18.46-50.4h352.91L960.75 60.27l9.73-22.77h3925.16l-24.3 53.11-693 1514-10 21.89h-655.1l130.2 482.73Z"/>
  <path fill="url(#a)" d="m11159 8371-143-530h680l693-1514H8547l-363 850h-324l152 415-345 779h914l203-482h589l204 482h1582m97.9 75H9527.3l-19.37-45.77L9323.3 7964h-489.51l-183.67 436.11-19.33 45.89H7551.76l46.66-105.37 332.73-751.29-141.57-386.54-36.92-100.8h381.82l343.55-804.45 19.45-45.55h4008.32l-48.6 106.21-693 1514-20 43.79h-630.3l117.5 435.46Z" transform="translate(-7551.76 -6252)"/>
  <path fill="url(#b)" d="M10832.6 8120.5h-395.5l-393-934h1661.7l-175.1 405.24h-932.3l-22.8 94.52 162.2 82.93Z" transform="translate(-7551.76 -6252)"/>
  <path fill="url(#c)" d="m10767.3 8070.5-72-266.89-142.5-72.83-287.3-146.91 204.8 486.63h297m730.5-528.76 131.9-305.24h-1510.4l128.5 305.24h1250m-599.9 628.76h-494l-435.131-1034H11781.9l-218.4 505.24h-965.1l181.9 93.02Z" transform="translate(-7551.76 -6252)"/>
  <path fill="url(#d)" d="M11757.9 6940.5H9941.7l-153.45-364h2172.95Z" transform="translate(-7551.76 -6252)"/>
  <path fill="url(#e)" d="m9863.59 6626.5 111.3 264h1753.71l147.4-264H9863.59m-150.68-100h2333.49l-259.1 464H9908.52Z" transform="translate(-7551.76 -6252)"/>
  <path fill="inherit" d="M2856.04 2731.02c-.295 0-.585-.008-.815-.021h-128l-14-48 45-10 5 18.029h82c1.282 0 2.843-3 3.927-5.517s1.913-5.022 2.068-5.5V2680l9-40-.012-.042c-.8-2.875-3.512-12.739-4.989-18.959a24.25 24.25 0 0 0-3.63-8.161 17.872 17.872 0 0 0-2.362-2.833l-87.241-32.717a104.809 104.809 0 0 1-17.07-5.4 82.225 82.225 0 0 1-11.739-6 47.153 47.153 0 0 1-8.937-6.888l-16-50c.074-.3 7.554-30.548 15-57.917a39.4 39.4 0 0 1 7.1-14.5 30.431 30.431 0 0 1 9.392-7.8 32.189 32.189 0 0 1 14.689-3.764c.438 0 .715.012.814.018h128l14 48.1-45 10.02-5-18.066h-82c-1.277 0-2.841 3.006-3.928 5.526-1.169 2.716-2.062 5.5-2.07 5.526l-7 31.08c.033.117 3.33 11.988 5 19.036a24.407 24.407 0 0 0 3.63 8.182 17.922 17.922 0 0 0 2.368 2.842l111.7 38.916a5.807 5.807 0 0 1-1.149-.826.021.021 0 0 1 0-.008.024.024 0 0 1 .019-.007 25.092 25.092 0 0 1 3.379 1.623l1.052.367h-.4a20.47 20.47 0 0 1 4.756 4.509 59.77 59.77 0 0 1 4.822 7.043c2.487 4.168 4.31 8 4.809 9.07l.017.035 12 42-.009.031c-.094.37-9.457 37.34-16.993 64.97a39.347 39.347 0 0 1-7.1 14.475 30.323 30.323 0 0 1-9.389 7.788 32.221 32.221 0 0 1-14.709 3.751Zm-2180.8-.02h-46l-20-84h-101l-21 84h-45l77-306h79Zm-124-267-34 143h82l-33-143Zm2000 267h-46l-20-84h-101l-21 84h-45l77-306h79Zm-124-267-34 143h82l-33-143Zm-625 267h-49l-22-101h-72v101h-44v-306h138a27.483 27.483 0 0 1 12.6 2.813 23.742 23.742 0 0 1 7.627 6.188 26.22 26.22 0 0 1 4.767 9l23 80c0 .016-.018.067-.039.152l-.113.437c-3.881 14.976-16.782 64.814-19.848 77.41a64.693 64.693 0 0 1-5.326 14.953 18.675 18.675 0 0 1-2.668 4.047Zm-143.012-269v129h79.012a5.438 5.438 0 0 0 2.169-1.848c1.116-1.406 2.688-4.15 3.832-9.234 2.189-9.723 11.9-55.461 12-55.919v-.021c-.4-1.684-9.847-41.363-11.994-50.9-1.145-5.086-2.716-7.829-3.832-9.234a5.428 5.428 0 0 0-2.175-1.844Zm488.012 269h-164v-306h164l15 48-45 10-6-18.029h-85V2555h76l6.6 16.021.4-.02-.171.585.171.414-.3.015-6.7 22.985h-76v96.03h85l6-18.029 45 10-15 48Zm-1107 0h-39l-115-224v224h-44v-263l9-43h37l117 220v-220h44v261Zm341 0h-144v-306h144a38.961 38.961 0 0 1 13.553 3.2 31.629 31.629 0 0 1 18.447 21.8c5.968 22.694 24.842 109.774 28.564 127h.436a.2.2 0 0 1-.006.033.56.56 0 0 1-.019.083c-.008.035-.023.111-.04.188l-.025.119-.125.576c.142.655.215 1 .215 1h-.433c-3.739 17.292-22.693 104.688-28.565 127a31.612 31.612 0 0 1-18.447 21.795 38.52 38.52 0 0 1-13.555 3.206Zm-101-266.03v226.06h82.97a9.023 9.023 0 0 0 5.492-2.035 19.27 19.27 0 0 0 4.1-4.481 33.8 33.8 0 0 0 3.438-6.514l21.782-100-21.782-100a34.592 34.592 0 0 0-3.442-6.515 19.213 19.213 0 0 0-4.1-4.482 9.018 9.018 0 0 0-5.493-2.034Z"/>
  <path fill="url(#a)" d="m2752.76 5405-57-140h-53v140h-43v-306h43v128h54l57-128h45l-60 144v5l61 157Zm-389 0-115-224v224h-44v-263l9-43h37l117 220v-220h44v261l-9 45Zm-394 0v-306h44v306Zm-235 0v-44h44v44Zm-361 0v-306h167l14 46-44 10-7-19h-87v102h80l8 20-8 20h-80v127Z" transform="translate(1712.48 -2674)"/>
  <path fill="url(#b)" d="M10098.4 8120.5h-355.67l-492.07-1158.55-12.93-30.45h-307.61l-13.19 29.73-176.99 398.99-31.181 70.28h406.87l89.28 209H8618.47l-12.89 30.56-190.11 450.44h-364.11l221.02-500.81 8.13-18.42-6.9-18.91-56.5-154.86h132.56l12.96-30.38 350.04-820.62h736.75Z" transform="translate(-7551.76 -6252)"/>
  <path fill="url(#c)" d="m10023.1 8070.5-606.9-1444h-670.5l-337.08 790.24-25.92 60.76h-94.13l32.01 87.73 13.8 37.81-16.25 36.84-190.05 430.62h254.22l177.21-419.88 25.79-61.12h543.88l-46.56-109h-450.74l62.351-140.55 177-399 26.369-59.45h373.21l25.87 60.91 479.13 1128.09h247.29m150.5 100h-463.96l-505-1189h-242l-177 399h363l132 309h-629l-203 481h-474l252-571-81-222h171l363-851h803Z" transform="translate(-7551.76 -6252)"/>
</svg>